<mxfile host="app.diagrams.net" agent="Mozilla/5.0 (Windows NT 10.0; Win64; x64) AppleWebKit/537.36 (KHTML, like Gecko) Chrome/131.0.0.0 Safari/537.36 Edg/131.0.0.0" version="25.0.1">
  <diagram name="PÃ¡gina-1" id="CvWP5UXYIzZ7P9Iewqwe">
    <mxGraphModel dx="2023" dy="605" grid="1" gridSize="10" guides="1" tooltips="1" connect="1" arrows="1" fold="1" page="1" pageScale="1" pageWidth="827" pageHeight="1169" math="0" shadow="0">
      <root>
        <mxCell id="0" />
        <mxCell id="1" parent="0" />
        <mxCell id="eysGofLwtFcwwYiszCQH-121" value="PESSOA&amp;nbsp;" style="rounded=0;whiteSpace=wrap;html=1;" vertex="1" parent="1">
          <mxGeometry x="90" y="240" width="120" height="60" as="geometry" />
        </mxCell>
        <mxCell id="eysGofLwtFcwwYiszCQH-122" value="AMIGO" style="rounded=0;whiteSpace=wrap;html=1;" vertex="1" parent="1">
          <mxGeometry x="490" y="240" width="120" height="60" as="geometry" />
        </mxCell>
        <mxCell id="eysGofLwtFcwwYiszCQH-123" value="tem" style="rhombus;whiteSpace=wrap;html=1;" vertex="1" parent="1">
          <mxGeometry x="304" y="230" width="110" height="80" as="geometry" />
        </mxCell>
        <mxCell id="eysGofLwtFcwwYiszCQH-124" value="" style="endArrow=none;html=1;rounded=0;entryX=0;entryY=0.5;entryDx=0;entryDy=0;exitX=1;exitY=0.5;exitDx=0;exitDy=0;" edge="1" parent="1" source="eysGofLwtFcwwYiszCQH-121" target="eysGofLwtFcwwYiszCQH-123">
          <mxGeometry width="50" height="50" relative="1" as="geometry">
            <mxPoint x="230" y="340" as="sourcePoint" />
            <mxPoint x="280" y="290" as="targetPoint" />
          </mxGeometry>
        </mxCell>
        <mxCell id="eysGofLwtFcwwYiszCQH-125" value="" style="endArrow=none;html=1;rounded=0;entryX=0;entryY=0.5;entryDx=0;entryDy=0;exitX=1;exitY=0.5;exitDx=0;exitDy=0;" edge="1" parent="1" source="eysGofLwtFcwwYiszCQH-123" target="eysGofLwtFcwwYiszCQH-122">
          <mxGeometry width="50" height="50" relative="1" as="geometry">
            <mxPoint x="386" y="290" as="sourcePoint" />
            <mxPoint x="480" y="290" as="targetPoint" />
          </mxGeometry>
        </mxCell>
        <mxCell id="eysGofLwtFcwwYiszCQH-126" value="1" style="text;html=1;align=center;verticalAlign=middle;whiteSpace=wrap;rounded=0;" vertex="1" parent="1">
          <mxGeometry x="210" y="240" width="60" height="30" as="geometry" />
        </mxCell>
        <mxCell id="eysGofLwtFcwwYiszCQH-127" value="n" style="text;html=1;align=center;verticalAlign=middle;whiteSpace=wrap;rounded=0;" vertex="1" parent="1">
          <mxGeometry x="420" y="232" width="60" height="30" as="geometry" />
        </mxCell>
        <mxCell id="eysGofLwtFcwwYiszCQH-129" value="nome" style="ellipse;whiteSpace=wrap;html=1;" vertex="1" parent="1">
          <mxGeometry x="30" y="130" width="90" height="50" as="geometry" />
        </mxCell>
        <mxCell id="eysGofLwtFcwwYiszCQH-130" value="dataNascimento" style="ellipse;whiteSpace=wrap;html=1;" vertex="1" parent="1">
          <mxGeometry x="-50" y="210" width="110" height="60" as="geometry" />
        </mxCell>
        <mxCell id="eysGofLwtFcwwYiszCQH-131" value="email" style="ellipse;whiteSpace=wrap;html=1;" vertex="1" parent="1">
          <mxGeometry x="-40" y="300" width="90" height="50" as="geometry" />
        </mxCell>
        <mxCell id="eysGofLwtFcwwYiszCQH-132" value="telefone" style="ellipse;whiteSpace=wrap;html=1;" vertex="1" parent="1">
          <mxGeometry x="70" y="340" width="100" height="50" as="geometry" />
        </mxCell>
        <mxCell id="eysGofLwtFcwwYiszCQH-133" value="nome" style="ellipse;whiteSpace=wrap;html=1;" vertex="1" parent="1">
          <mxGeometry x="520" y="150" width="90" height="50" as="geometry" />
        </mxCell>
        <mxCell id="eysGofLwtFcwwYiszCQH-134" value="dataNascimento" style="ellipse;whiteSpace=wrap;html=1;" vertex="1" parent="1">
          <mxGeometry x="650" y="190" width="110" height="60" as="geometry" />
        </mxCell>
        <mxCell id="eysGofLwtFcwwYiszCQH-135" value="email" style="ellipse;whiteSpace=wrap;html=1;" vertex="1" parent="1">
          <mxGeometry x="650" y="330" width="90" height="50" as="geometry" />
        </mxCell>
        <mxCell id="eysGofLwtFcwwYiszCQH-136" value="telefone" style="ellipse;whiteSpace=wrap;html=1;" vertex="1" parent="1">
          <mxGeometry x="530" y="350" width="100" height="50" as="geometry" />
        </mxCell>
        <mxCell id="eysGofLwtFcwwYiszCQH-137" value="" style="endArrow=none;html=1;rounded=0;exitX=0.646;exitY=0.984;exitDx=0;exitDy=0;exitPerimeter=0;" edge="1" parent="1" source="eysGofLwtFcwwYiszCQH-129" target="eysGofLwtFcwwYiszCQH-121">
          <mxGeometry width="50" height="50" relative="1" as="geometry">
            <mxPoint x="220" y="280" as="sourcePoint" />
            <mxPoint x="314" y="280" as="targetPoint" />
          </mxGeometry>
        </mxCell>
        <mxCell id="eysGofLwtFcwwYiszCQH-138" value="" style="endArrow=none;html=1;rounded=0;exitX=1;exitY=1;exitDx=0;exitDy=0;entryX=0;entryY=0.5;entryDx=0;entryDy=0;" edge="1" parent="1" source="eysGofLwtFcwwYiszCQH-130" target="eysGofLwtFcwwYiszCQH-121">
          <mxGeometry width="50" height="50" relative="1" as="geometry">
            <mxPoint x="98" y="189" as="sourcePoint" />
            <mxPoint x="140" y="250" as="targetPoint" />
          </mxGeometry>
        </mxCell>
        <mxCell id="eysGofLwtFcwwYiszCQH-139" value="" style="endArrow=none;html=1;rounded=0;exitX=0.994;exitY=0.313;exitDx=0;exitDy=0;entryX=0;entryY=1;entryDx=0;entryDy=0;exitPerimeter=0;" edge="1" parent="1" source="eysGofLwtFcwwYiszCQH-131" target="eysGofLwtFcwwYiszCQH-121">
          <mxGeometry width="50" height="50" relative="1" as="geometry">
            <mxPoint x="54" y="271" as="sourcePoint" />
            <mxPoint x="100" y="280" as="targetPoint" />
          </mxGeometry>
        </mxCell>
        <mxCell id="eysGofLwtFcwwYiszCQH-140" value="" style="endArrow=none;html=1;rounded=0;exitX=0.283;exitY=-0.033;exitDx=0;exitDy=0;entryX=0.25;entryY=1;entryDx=0;entryDy=0;exitPerimeter=0;" edge="1" parent="1" source="eysGofLwtFcwwYiszCQH-132" target="eysGofLwtFcwwYiszCQH-121">
          <mxGeometry width="50" height="50" relative="1" as="geometry">
            <mxPoint x="59" y="326" as="sourcePoint" />
            <mxPoint x="100" y="310" as="targetPoint" />
          </mxGeometry>
        </mxCell>
        <mxCell id="eysGofLwtFcwwYiszCQH-141" value="" style="endArrow=none;html=1;rounded=0;entryX=0.5;entryY=1;entryDx=0;entryDy=0;exitX=0.5;exitY=0;exitDx=0;exitDy=0;" edge="1" parent="1" source="eysGofLwtFcwwYiszCQH-122" target="eysGofLwtFcwwYiszCQH-133">
          <mxGeometry width="50" height="50" relative="1" as="geometry">
            <mxPoint x="424" y="280" as="sourcePoint" />
            <mxPoint x="500" y="280" as="targetPoint" />
          </mxGeometry>
        </mxCell>
        <mxCell id="eysGofLwtFcwwYiszCQH-142" value="" style="endArrow=none;html=1;rounded=0;entryX=0;entryY=0.5;entryDx=0;entryDy=0;exitX=1;exitY=0;exitDx=0;exitDy=0;" edge="1" parent="1" source="eysGofLwtFcwwYiszCQH-122" target="eysGofLwtFcwwYiszCQH-134">
          <mxGeometry width="50" height="50" relative="1" as="geometry">
            <mxPoint x="560" y="250" as="sourcePoint" />
            <mxPoint x="575" y="210" as="targetPoint" />
          </mxGeometry>
        </mxCell>
        <mxCell id="eysGofLwtFcwwYiszCQH-143" value="" style="endArrow=none;html=1;rounded=0;entryX=0.333;entryY=0;entryDx=0;entryDy=0;exitX=1;exitY=0.75;exitDx=0;exitDy=0;entryPerimeter=0;" edge="1" parent="1" source="eysGofLwtFcwwYiszCQH-122" target="eysGofLwtFcwwYiszCQH-135">
          <mxGeometry width="50" height="50" relative="1" as="geometry">
            <mxPoint x="620" y="250" as="sourcePoint" />
            <mxPoint x="660" y="230" as="targetPoint" />
          </mxGeometry>
        </mxCell>
        <mxCell id="eysGofLwtFcwwYiszCQH-144" value="" style="endArrow=none;html=1;rounded=0;entryX=1;entryY=0;entryDx=0;entryDy=0;exitX=0.75;exitY=1;exitDx=0;exitDy=0;" edge="1" parent="1" source="eysGofLwtFcwwYiszCQH-122" target="eysGofLwtFcwwYiszCQH-136">
          <mxGeometry width="50" height="50" relative="1" as="geometry">
            <mxPoint x="620" y="295" as="sourcePoint" />
            <mxPoint x="690" y="340" as="targetPoint" />
          </mxGeometry>
        </mxCell>
        <mxCell id="eysGofLwtFcwwYiszCQH-145" value="JOGADOR&lt;span style=&quot;color: rgba(0, 0, 0, 0); font-family: monospace; font-size: 0px; text-align: start; text-wrap-mode: nowrap;&quot;&gt;%3CmxGraphModel%3E%3Croot%3E%3CmxCell%20id%3D%220%22%2F%3E%3CmxCell%20id%3D%221%22%20parent%3D%220%22%2F%3E%3CmxCell%20id%3D%222%22%20value%3D%22%22%20style%3D%22endArrow%3Dnone%3Bhtml%3D1%3Brounded%3D0%3BentryX%3D0.333%3BentryY%3D0%3BentryDx%3D0%3BentryDy%3D0%3BexitX%3D1%3BexitY%3D0.75%3BexitDx%3D0%3BexitDy%3D0%3BentryPerimeter%3D0%3B%22%20edge%3D%221%22%20parent%3D%221%22%3E%3CmxGeometry%20width%3D%2250%22%20height%3D%2250%22%20relative%3D%221%22%20as%3D%22geometry%22%3E%3CmxPoint%20x%3D%22610%22%20y%3D%22285%22%20as%3D%22sourcePoint%22%2F%3E%3CmxPoint%20x%3D%22680%22%20y%3D%22330%22%20as%3D%22targetPoint%22%2F%3E%3C%2FmxGeometry%3E%3C%2FmxCell%3E%3C%2Froot%3E%3C%2FmxGraphModel%3E&lt;/span&gt;" style="rounded=0;whiteSpace=wrap;html=1;" vertex="1" parent="1">
          <mxGeometry x="90" y="580" width="120" height="60" as="geometry" />
        </mxCell>
        <mxCell id="eysGofLwtFcwwYiszCQH-146" value="EQUIPE" style="rounded=0;whiteSpace=wrap;html=1;" vertex="1" parent="1">
          <mxGeometry x="500" y="580" width="120" height="60" as="geometry" />
        </mxCell>
        <mxCell id="eysGofLwtFcwwYiszCQH-147" value="telefone" style="ellipse;whiteSpace=wrap;html=1;" vertex="1" parent="1">
          <mxGeometry x="30" y="680" width="100" height="50" as="geometry" />
        </mxCell>
        <mxCell id="eysGofLwtFcwwYiszCQH-148" value="nome" style="ellipse;whiteSpace=wrap;html=1;" vertex="1" parent="1">
          <mxGeometry x="-50" y="620" width="90" height="50" as="geometry" />
        </mxCell>
        <mxCell id="eysGofLwtFcwwYiszCQH-149" value="posicao" style="ellipse;whiteSpace=wrap;html=1;" vertex="1" parent="1">
          <mxGeometry x="-70" y="530" width="110" height="60" as="geometry" />
        </mxCell>
        <mxCell id="eysGofLwtFcwwYiszCQH-150" value="id_jogador" style="ellipse;whiteSpace=wrap;html=1;" vertex="1" parent="1">
          <mxGeometry x="60" y="490" width="90" height="50" as="geometry" />
        </mxCell>
        <mxCell id="eysGofLwtFcwwYiszCQH-151" value="id" style="ellipse;whiteSpace=wrap;html=1;" vertex="1" parent="1">
          <mxGeometry x="140" y="150" width="80" height="40" as="geometry" />
        </mxCell>
        <mxCell id="eysGofLwtFcwwYiszCQH-152" value="" style="endArrow=none;html=1;rounded=0;exitX=0;exitY=1;exitDx=0;exitDy=0;entryX=0.5;entryY=0;entryDx=0;entryDy=0;" edge="1" parent="1" source="eysGofLwtFcwwYiszCQH-151" target="eysGofLwtFcwwYiszCQH-121">
          <mxGeometry width="50" height="50" relative="1" as="geometry">
            <mxPoint x="98" y="189" as="sourcePoint" />
            <mxPoint x="140" y="250" as="targetPoint" />
          </mxGeometry>
        </mxCell>
        <mxCell id="eysGofLwtFcwwYiszCQH-153" value="" style="endArrow=none;html=1;rounded=0;entryX=0.36;entryY=1.026;entryDx=0;entryDy=0;entryPerimeter=0;exitX=0.25;exitY=0;exitDx=0;exitDy=0;" edge="1" parent="1" source="eysGofLwtFcwwYiszCQH-145" target="eysGofLwtFcwwYiszCQH-150">
          <mxGeometry width="50" height="50" relative="1" as="geometry">
            <mxPoint y="640" as="sourcePoint" />
            <mxPoint x="50" y="590" as="targetPoint" />
          </mxGeometry>
        </mxCell>
        <mxCell id="eysGofLwtFcwwYiszCQH-154" value="" style="endArrow=none;html=1;rounded=0;entryX=1;entryY=1;entryDx=0;entryDy=0;exitX=0;exitY=0.25;exitDx=0;exitDy=0;" edge="1" parent="1" source="eysGofLwtFcwwYiszCQH-145" target="eysGofLwtFcwwYiszCQH-149">
          <mxGeometry width="50" height="50" relative="1" as="geometry">
            <mxPoint x="130" y="590" as="sourcePoint" />
            <mxPoint x="102" y="551" as="targetPoint" />
          </mxGeometry>
        </mxCell>
        <mxCell id="eysGofLwtFcwwYiszCQH-155" value="" style="endArrow=none;html=1;rounded=0;entryX=1.002;entryY=0.296;entryDx=0;entryDy=0;exitX=0;exitY=0.75;exitDx=0;exitDy=0;entryPerimeter=0;" edge="1" parent="1" source="eysGofLwtFcwwYiszCQH-145" target="eysGofLwtFcwwYiszCQH-148">
          <mxGeometry width="50" height="50" relative="1" as="geometry">
            <mxPoint x="100" y="605" as="sourcePoint" />
            <mxPoint x="34" y="591" as="targetPoint" />
          </mxGeometry>
        </mxCell>
        <mxCell id="eysGofLwtFcwwYiszCQH-156" value="" style="endArrow=none;html=1;rounded=0;entryX=0.5;entryY=0;entryDx=0;entryDy=0;exitX=0.25;exitY=1;exitDx=0;exitDy=0;" edge="1" parent="1" source="eysGofLwtFcwwYiszCQH-145" target="eysGofLwtFcwwYiszCQH-147">
          <mxGeometry width="50" height="50" relative="1" as="geometry">
            <mxPoint x="100" y="635" as="sourcePoint" />
            <mxPoint x="50" y="645" as="targetPoint" />
          </mxGeometry>
        </mxCell>
        <mxCell id="eysGofLwtFcwwYiszCQH-157" value="joga" style="rhombus;whiteSpace=wrap;html=1;" vertex="1" parent="1">
          <mxGeometry x="304" y="570" width="110" height="80" as="geometry" />
        </mxCell>
        <mxCell id="eysGofLwtFcwwYiszCQH-158" value="" style="endArrow=none;html=1;rounded=0;exitX=1;exitY=0.5;exitDx=0;exitDy=0;entryX=0;entryY=0.5;entryDx=0;entryDy=0;" edge="1" parent="1" source="eysGofLwtFcwwYiszCQH-145" target="eysGofLwtFcwwYiszCQH-157">
          <mxGeometry width="50" height="50" relative="1" as="geometry">
            <mxPoint x="200" y="640" as="sourcePoint" />
            <mxPoint x="300" y="610" as="targetPoint" />
          </mxGeometry>
        </mxCell>
        <mxCell id="eysGofLwtFcwwYiszCQH-159" value="1" style="text;html=1;align=center;verticalAlign=middle;whiteSpace=wrap;rounded=0;" vertex="1" parent="1">
          <mxGeometry x="200" y="580" width="60" height="30" as="geometry" />
        </mxCell>
        <mxCell id="eysGofLwtFcwwYiszCQH-160" value="" style="endArrow=none;html=1;rounded=0;entryX=0;entryY=0.5;entryDx=0;entryDy=0;exitX=1;exitY=0.5;exitDx=0;exitDy=0;" edge="1" parent="1" source="eysGofLwtFcwwYiszCQH-157" target="eysGofLwtFcwwYiszCQH-146">
          <mxGeometry width="50" height="50" relative="1" as="geometry">
            <mxPoint x="420" y="530" as="sourcePoint" />
            <mxPoint x="496" y="530" as="targetPoint" />
          </mxGeometry>
        </mxCell>
        <mxCell id="eysGofLwtFcwwYiszCQH-162" value="1" style="text;html=1;align=center;verticalAlign=middle;whiteSpace=wrap;rounded=0;" vertex="1" parent="1">
          <mxGeometry x="440" y="580" width="60" height="30" as="geometry" />
        </mxCell>
        <mxCell id="eysGofLwtFcwwYiszCQH-163" value="id_equipe" style="ellipse;whiteSpace=wrap;html=1;" vertex="1" parent="1">
          <mxGeometry x="520" y="480" width="90" height="50" as="geometry" />
        </mxCell>
        <mxCell id="eysGofLwtFcwwYiszCQH-165" value="" style="endArrow=none;html=1;rounded=0;entryX=0.5;entryY=1;entryDx=0;entryDy=0;exitX=0.25;exitY=0;exitDx=0;exitDy=0;" edge="1" parent="1" source="eysGofLwtFcwwYiszCQH-146" target="eysGofLwtFcwwYiszCQH-163">
          <mxGeometry width="50" height="50" relative="1" as="geometry">
            <mxPoint x="130" y="590" as="sourcePoint" />
            <mxPoint x="102" y="551" as="targetPoint" />
          </mxGeometry>
        </mxCell>
        <mxCell id="eysGofLwtFcwwYiszCQH-166" value="nome" style="ellipse;whiteSpace=wrap;html=1;" vertex="1" parent="1">
          <mxGeometry x="640" y="510" width="90" height="50" as="geometry" />
        </mxCell>
        <mxCell id="eysGofLwtFcwwYiszCQH-167" value="" style="endArrow=none;html=1;rounded=0;entryX=0;entryY=1;entryDx=0;entryDy=0;exitX=1;exitY=0;exitDx=0;exitDy=0;" edge="1" parent="1" source="eysGofLwtFcwwYiszCQH-146" target="eysGofLwtFcwwYiszCQH-166">
          <mxGeometry width="50" height="50" relative="1" as="geometry">
            <mxPoint x="540" y="590" as="sourcePoint" />
            <mxPoint x="575" y="540" as="targetPoint" />
          </mxGeometry>
        </mxCell>
        <mxCell id="eysGofLwtFcwwYiszCQH-168" value="cidade" style="ellipse;whiteSpace=wrap;html=1;" vertex="1" parent="1">
          <mxGeometry x="670" y="600" width="90" height="50" as="geometry" />
        </mxCell>
        <mxCell id="eysGofLwtFcwwYiszCQH-169" value="" style="endArrow=none;html=1;rounded=0;entryX=0;entryY=0;entryDx=0;entryDy=0;exitX=1;exitY=0.5;exitDx=0;exitDy=0;" edge="1" parent="1" source="eysGofLwtFcwwYiszCQH-146" target="eysGofLwtFcwwYiszCQH-168">
          <mxGeometry width="50" height="50" relative="1" as="geometry">
            <mxPoint x="630" y="590" as="sourcePoint" />
            <mxPoint x="663" y="563" as="targetPoint" />
          </mxGeometry>
        </mxCell>
        <mxCell id="eysGofLwtFcwwYiszCQH-170" value="" style="endArrow=none;html=1;rounded=0;exitX=0.898;exitY=0.969;exitDx=0;exitDy=0;exitPerimeter=0;" edge="1" parent="1" source="eysGofLwtFcwwYiszCQH-146">
          <mxGeometry width="50" height="50" relative="1" as="geometry">
            <mxPoint x="630" y="620" as="sourcePoint" />
            <mxPoint x="640" y="670" as="targetPoint" />
            <Array as="points">
              <mxPoint x="650" y="670" />
            </Array>
          </mxGeometry>
        </mxCell>
        <mxCell id="eysGofLwtFcwwYiszCQH-171" value="endereco" style="ellipse;whiteSpace=wrap;html=1;" vertex="1" parent="1">
          <mxGeometry x="640" y="660" width="90" height="50" as="geometry" />
        </mxCell>
      </root>
    </mxGraphModel>
  </diagram>
</mxfile>
